<svg width="648" height="249" viewBox="0 0 648 249" fill="none" xmlns="http://www.w3.org/2000/svg">
<path d="M81.3507 162.343C81.3507 159.725 81.2883 156.608 81.1636 152.993C81.039 149.252 80.6649 145.45 80.0416 141.585C79.5429 137.595 78.6078 133.917 77.2364 130.551C75.9896 127.06 74.1818 124.255 71.813 122.135C69.4442 120.016 66.3896 118.956 62.6494 118.956C57.6623 118.956 53.5481 120.39 50.3065 123.258C47.1896 126.125 44.6338 129.741 42.639 134.104V182.915C42.639 186.032 43.2 189.46 44.3221 193.2C45.5688 196.816 47.439 199.933 49.9325 202.551C52.426 205.045 55.5429 206.291 59.2831 206.291C64.7688 206.291 69.0078 204.795 72 201.803C75.1169 198.686 77.2987 194.821 78.5455 190.208C79.9169 185.595 80.7273 180.795 80.9766 175.808C81.226 170.696 81.3507 166.208 81.3507 162.343ZM106.971 159.725C106.971 169.824 105.288 178.8 101.922 186.655C98.5558 194.385 93.3818 200.494 86.4 204.982C79.4182 209.346 70.5662 211.528 59.8442 211.528C57.1013 211.528 54.0468 210.904 50.6805 209.658C47.439 208.286 44.6961 206.915 42.452 205.543C42.452 208.286 42.3896 211.029 42.2649 213.772C42.2649 216.639 42.3273 219.507 42.452 222.374V237.522C42.452 238.645 42.639 239.767 43.013 240.889C43.5117 242.011 44.4468 242.572 45.8182 242.572C46.8156 242.572 47.813 242.509 48.8104 242.385C49.9325 242.385 50.9922 242.385 51.9896 242.385C53.7351 242.385 54.6078 243.32 54.6078 245.19C54.6078 247.185 53.6727 248.182 51.8026 248.182C48.3117 248.182 44.8208 248.058 41.3299 247.808C37.839 247.559 34.2857 247.434 30.6701 247.434C27.0545 247.434 23.3766 247.559 19.6364 247.808C15.8961 248.058 12.2182 248.182 8.6026 248.182C7.72987 248.182 7.10649 247.808 6.73247 247.06C6.35844 246.437 6.17143 245.813 6.17143 245.19C6.17143 243.32 7.10649 242.385 8.97662 242.385C9.97403 242.385 10.9714 242.385 11.9688 242.385C12.9662 242.509 13.9013 242.572 14.774 242.572C16.1455 242.572 17.1429 242.073 17.7662 241.076C18.3896 240.203 18.7013 239.143 18.7013 237.896C18.7013 219.694 18.7013 201.491 18.7013 183.289C18.826 164.961 18.8883 146.696 18.8883 128.494C18.8883 127.122 18.7013 125.626 18.3273 124.006C17.9532 122.385 16.8312 121.574 14.961 121.574C13.7143 121.574 12.4675 121.637 11.2208 121.761C10.0987 121.886 8.91429 121.948 7.66753 121.948C6.91948 121.948 6.04675 121.824 5.04935 121.574C4.17662 121.2 3.74026 120.515 3.74026 119.517C3.74026 118.769 3.98961 118.208 4.48831 117.834C4.98701 117.46 5.54805 117.211 6.17143 117.086C7.54286 116.587 8.97662 116.276 10.4727 116.151C11.9688 116.026 13.4026 115.839 14.774 115.59C21.1325 114.468 27.2416 112.972 33.1013 111.102C33.6 110.852 34.0987 110.665 34.5974 110.541C35.0961 110.291 35.5948 110.167 36.0935 110.167C36.9662 110.167 37.7143 110.915 38.3377 112.411C39.0857 113.907 39.6468 115.528 40.0208 117.273C40.5195 119.019 40.8935 120.265 41.1429 121.013C42.8883 120.016 45.3818 118.894 48.6234 117.647C51.8649 116.276 55.1065 115.091 58.3481 114.094C61.7143 112.972 64.3325 112.411 66.2026 112.411C72.561 112.411 78.2338 113.782 83.2208 116.525C88.2078 119.268 92.4468 122.946 95.9377 127.559C99.5533 132.047 102.296 137.096 104.166 142.707C106.036 148.317 106.971 153.99 106.971 159.725ZM172.5 192.265C172.126 186.406 171.877 180.546 171.752 174.686C171.628 168.702 171.628 162.717 171.752 156.733C166.641 157.606 161.654 159.226 156.791 161.595C152.054 163.839 148.126 166.894 145.01 170.759C141.893 174.624 140.334 179.548 140.334 185.533C140.334 188.026 140.646 190.707 141.269 193.574C142.017 196.442 143.264 198.873 145.01 200.868C146.88 202.738 149.373 203.673 152.49 203.673C154.734 203.673 157.103 203.05 159.597 201.803C162.09 200.432 164.459 198.873 166.703 197.128C169.072 195.382 171.004 193.761 172.5 192.265ZM211.025 203.299C211.025 203.798 210.776 204.359 210.277 204.982C209.903 205.606 209.529 206.104 209.155 206.478C205.29 210.967 200.303 213.211 194.194 213.211C188.833 213.211 184.532 212.026 181.29 209.658C178.049 207.289 175.555 203.611 173.81 198.624C169.82 202.863 165.519 206.229 160.906 208.722C156.417 211.216 151.119 212.463 145.01 212.463C140.646 212.463 136.22 211.528 131.732 209.658C127.368 207.663 123.69 204.858 120.698 201.242C117.83 197.626 116.397 193.45 116.397 188.712C116.397 183.974 117.581 179.798 119.95 176.182C122.443 172.442 125.56 169.263 129.3 166.645C133.041 163.902 136.843 161.658 140.708 159.912C145.695 157.793 150.807 156.172 156.043 155.05C161.28 153.803 166.516 152.556 171.752 151.309V150.561C171.752 148.317 171.69 145.325 171.565 141.585C171.565 137.72 171.191 133.917 170.443 130.177C169.695 126.312 168.449 123.071 166.703 120.452C164.958 117.709 162.402 116.338 159.036 116.338C155.171 116.338 151.68 117.46 148.563 119.704C145.571 121.948 143.451 124.941 142.204 128.681C141.955 129.803 141.768 130.925 141.643 132.047C141.519 133.045 141.332 134.104 141.082 135.226C140.833 137.221 139.649 138.593 137.529 139.341C135.534 139.964 133.664 140.276 131.919 140.276C129.799 140.276 127.742 139.839 125.747 138.967C123.752 137.969 122.755 136.161 122.755 133.543C122.755 132.546 122.88 131.673 123.129 130.925C123.503 130.052 123.877 129.18 124.251 128.307C126.246 123.569 129.238 120.078 133.228 117.834C137.217 115.59 141.581 114.094 146.319 113.346C151.181 112.598 155.794 112.224 160.158 112.224C170.381 112.224 178.797 114.967 185.404 120.452C192.012 125.938 195.316 134.042 195.316 144.764V173.003C195.191 176.494 195.129 180.109 195.129 183.85C195.254 187.465 195.441 191.081 195.69 194.696C195.939 196.816 196.438 198.873 197.186 200.868C197.934 202.738 199.617 203.673 202.236 203.673C203.981 203.673 205.415 203.299 206.537 202.551C207.784 201.803 208.906 201.429 209.903 201.429C210.402 201.429 210.713 201.678 210.838 202.177C210.963 202.676 211.025 203.05 211.025 203.299ZM270.485 192.265C270.111 186.406 269.862 180.546 269.737 174.686C269.612 168.702 269.612 162.717 269.737 156.733C264.625 157.606 259.638 159.226 254.776 161.595C250.038 163.839 246.111 166.894 242.994 170.759C239.877 174.624 238.319 179.548 238.319 185.533C238.319 188.026 238.631 190.707 239.254 193.574C240.002 196.442 241.249 198.873 242.994 200.868C244.864 202.738 247.358 203.673 250.475 203.673C252.719 203.673 255.088 203.05 257.581 201.803C260.075 200.432 262.444 198.873 264.688 197.128C267.056 195.382 268.989 193.761 270.485 192.265ZM309.01 203.299C309.01 203.798 308.76 204.359 308.262 204.982C307.888 205.606 307.514 206.104 307.14 206.478C303.275 210.967 298.288 213.211 292.179 213.211C286.818 213.211 282.516 212.026 279.275 209.658C276.033 207.289 273.54 203.611 271.794 198.624C267.805 202.863 263.503 206.229 258.89 208.722C254.402 211.216 249.103 212.463 242.994 212.463C238.631 212.463 234.205 211.528 229.716 209.658C225.353 207.663 221.675 204.858 218.682 201.242C215.815 197.626 214.381 193.45 214.381 188.712C214.381 183.974 215.566 179.798 217.934 176.182C220.428 172.442 223.545 169.263 227.285 166.645C231.025 163.902 234.828 161.658 238.693 159.912C243.68 157.793 248.792 156.172 254.028 155.05C259.264 153.803 264.501 152.556 269.737 151.309V150.561C269.737 148.317 269.675 145.325 269.55 141.585C269.55 137.72 269.176 133.917 268.428 130.177C267.68 126.312 266.433 123.071 264.688 120.452C262.942 117.709 260.386 116.338 257.02 116.338C253.155 116.338 249.664 117.46 246.547 119.704C243.555 121.948 241.436 124.941 240.189 128.681C239.94 129.803 239.753 130.925 239.628 132.047C239.503 133.045 239.316 134.104 239.067 135.226C238.818 137.221 237.633 138.593 235.514 139.341C233.519 139.964 231.649 140.276 229.903 140.276C227.784 140.276 225.727 139.839 223.732 138.967C221.737 137.969 220.74 136.161 220.74 133.543C220.74 132.546 220.864 131.673 221.114 130.925C221.488 130.052 221.862 129.18 222.236 128.307C224.231 123.569 227.223 120.078 231.212 117.834C235.202 115.59 239.566 114.094 244.303 113.346C249.166 112.598 253.779 112.224 258.142 112.224C268.366 112.224 276.781 114.967 283.389 120.452C289.997 125.938 293.301 134.042 293.301 144.764V173.003C293.176 176.494 293.114 180.109 293.114 183.85C293.238 187.465 293.425 191.081 293.675 194.696C293.924 196.816 294.423 198.873 295.171 200.868C295.919 202.738 297.602 203.673 300.22 203.673C301.966 203.673 303.399 203.299 304.521 202.551C305.768 201.803 306.89 201.429 307.888 201.429C308.386 201.429 308.698 201.678 308.823 202.177C308.947 202.676 309.01 203.05 309.01 203.299ZM384.927 184.598C384.927 190.458 383.68 195.258 381.187 198.998C378.693 202.613 375.389 205.419 371.275 207.413C367.161 209.408 362.672 210.78 357.81 211.528C353.072 212.276 348.335 212.65 343.597 212.65C340.48 212.65 337.425 212.338 334.433 211.715C331.441 211.091 328.449 210.406 325.457 209.658C324.21 209.408 322.901 209.159 321.529 208.909C320.158 208.535 318.787 208.348 317.415 208.348C316.916 206.603 316.168 204.047 315.171 200.681C314.298 197.19 313.425 193.824 312.553 190.582C311.805 187.216 311.431 184.847 311.431 183.476C311.431 182.104 311.867 181.232 312.74 180.858C313.612 180.483 314.548 180.296 315.545 180.296C317.041 180.296 318.163 180.858 318.911 181.98C320.781 184.598 322.277 187.341 323.4 190.208C324.522 193.076 326.267 195.756 328.636 198.25C330.381 200.12 332.875 202.052 336.116 204.047C339.483 205.917 342.475 206.852 345.093 206.852C350.703 206.852 354.88 205.543 357.623 202.925C360.49 200.307 361.924 196.13 361.924 190.395C361.924 186.53 360.74 183.289 358.371 180.671C356.002 178.052 352.948 175.683 349.207 173.564C345.592 171.445 341.727 169.387 337.612 167.393C333.498 165.273 329.571 162.967 325.831 160.473C322.215 157.98 319.223 154.987 316.854 151.496C314.485 147.881 313.301 143.517 313.301 138.406C313.301 132.047 315.046 126.873 318.537 122.883C322.028 118.894 326.454 115.964 331.815 114.094C337.301 112.224 342.787 111.289 348.272 111.289C350.766 111.289 353.197 111.476 355.566 111.85C357.935 112.224 360.303 112.909 362.672 113.907C363.794 114.281 365.29 114.78 367.161 115.403C369.155 115.902 370.714 116.151 371.836 116.151C373.457 116.151 375.015 115.964 376.511 115.59C376.761 119.081 377.135 122.572 377.633 126.063C378.257 129.554 378.631 133.045 378.755 136.535V137.096C378.88 138.343 378.506 139.403 377.633 140.276C376.885 141.024 375.95 141.398 374.828 141.398C373.581 141.398 372.646 141.148 372.023 140.65C371.524 140.151 371.025 139.403 370.527 138.406C368.906 134.79 367.285 131.361 365.664 128.12C364.168 124.754 362.111 122.011 359.493 119.891C357 117.772 353.384 116.712 348.646 116.712C343.659 116.712 339.981 118.645 337.612 122.509C335.244 126.374 334.059 130.489 334.059 134.852C334.059 138.343 335.368 141.335 337.987 143.829C340.605 146.322 343.285 148.317 346.028 149.813C349.394 151.559 353.259 153.491 357.623 155.611C362.111 157.73 366.412 160.161 370.527 162.904C374.641 165.647 378.07 168.826 380.812 172.442C383.555 175.933 384.927 179.985 384.927 184.598ZM501.116 205.169C501.116 206.167 500.493 207.039 499.246 207.787C495.88 210.156 492.763 211.59 489.895 212.089C487.028 212.587 483.599 212.837 479.609 212.837C475.744 212.837 472.441 211.216 469.698 207.974C467.08 204.733 465.459 201.367 464.835 197.876C461.22 202.863 456.918 206.728 451.931 209.471C447.069 212.089 441.521 213.398 435.287 213.398C423.318 213.398 414.841 210.655 409.854 205.169C404.867 199.559 402.373 190.894 402.373 179.174V166.645C402.373 160.161 402.373 153.741 402.373 147.382C402.498 140.899 402.56 134.416 402.56 127.933C402.56 126.561 402.373 125.065 401.999 123.445C401.625 121.824 400.503 121.013 398.633 121.013C397.885 121.013 397.137 121.076 396.389 121.2C395.765 121.325 395.08 121.387 394.331 121.387C393.459 121.387 392.461 121.263 391.339 121.013C390.217 120.764 389.656 120.078 389.656 118.956C389.656 117.959 389.843 117.273 390.217 116.899C390.716 116.525 391.339 116.276 392.087 116.151C393.459 115.777 394.955 115.528 396.576 115.403C398.196 115.278 399.693 115.154 401.064 115.029C407.921 114.156 414.965 112.847 422.196 111.102C422.944 110.852 423.63 110.728 424.254 110.728C425.999 110.728 426.872 111.538 426.872 113.159C426.872 123.881 426.747 134.665 426.498 145.512C426.248 156.234 426.124 166.956 426.124 177.678C426.124 180.671 426.186 183.85 426.311 187.216C426.56 190.458 427.121 193.512 427.994 196.38C428.991 199.247 430.612 201.554 432.856 203.299C435.1 205.045 438.217 205.917 442.207 205.917C446.446 205.917 450.311 204.296 453.802 201.055C457.293 197.689 459.848 194.26 461.469 190.769C461.594 190.52 461.843 189.959 462.217 189.086C462.591 188.089 462.778 187.528 462.778 187.403C462.778 177.429 462.716 167.517 462.591 157.668C462.591 147.694 462.591 137.782 462.591 127.933C462.591 126.561 462.404 125.065 462.03 123.445C461.656 121.824 460.534 121.013 458.664 121.013C457.916 121.013 457.168 121.076 456.42 121.2C455.672 121.325 454.861 121.387 453.989 121.387C453.116 121.387 452.118 121.263 450.996 121.013C449.999 120.764 449.5 120.078 449.5 118.956C449.5 117.959 449.687 117.273 450.061 116.899C450.56 116.525 451.183 116.276 451.931 116.151C453.303 115.777 454.799 115.528 456.42 115.403C458.041 115.278 459.599 115.154 461.095 115.029C468.077 114.032 474.996 112.722 481.854 111.102C482.228 110.977 482.539 110.915 482.789 110.915C483.163 110.79 483.537 110.728 483.911 110.728C485.781 110.728 486.716 111.538 486.716 113.159C486.716 126.748 486.654 140.4 486.529 154.115C486.404 167.704 486.342 181.356 486.342 195.071C486.342 196.317 486.404 197.751 486.529 199.372C486.654 200.868 487.09 202.239 487.838 203.486C488.586 204.608 489.833 205.169 491.578 205.169C492.95 205.169 494.321 204.858 495.693 204.234C497.064 203.486 498.248 203.112 499.246 203.112C499.869 203.112 500.306 203.361 500.555 203.86C500.929 204.234 501.116 204.671 501.116 205.169ZM580.77 162.343C580.77 159.725 580.708 156.608 580.583 152.993C580.459 149.252 580.085 145.45 579.461 141.585C578.963 137.595 578.027 133.917 576.656 130.551C575.409 127.06 573.601 124.255 571.233 122.135C568.864 120.016 565.809 118.956 562.069 118.956C557.082 118.956 552.968 120.39 549.726 123.258C546.609 126.125 544.053 129.741 542.059 134.104V182.915C542.059 186.032 542.62 189.46 543.742 193.2C544.988 196.816 546.859 199.933 549.352 202.551C551.846 205.045 554.963 206.291 558.703 206.291C564.188 206.291 568.427 204.795 571.42 201.803C574.537 198.686 576.718 194.821 577.965 190.208C579.337 185.595 580.147 180.795 580.396 175.808C580.646 170.696 580.77 166.208 580.77 162.343ZM606.391 159.725C606.391 169.824 604.708 178.8 601.342 186.655C597.975 194.385 592.801 200.494 585.82 204.982C578.838 209.346 569.986 211.528 559.264 211.528C556.521 211.528 553.466 210.904 550.1 209.658C546.859 208.286 544.116 206.915 541.872 205.543C541.872 208.286 541.809 211.029 541.685 213.772C541.685 216.639 541.747 219.507 541.872 222.374V237.522C541.872 238.645 542.059 239.767 542.433 240.889C542.931 242.011 543.866 242.572 545.238 242.572C546.235 242.572 547.233 242.509 548.23 242.385C549.352 242.385 550.412 242.385 551.409 242.385C553.155 242.385 554.027 243.32 554.027 245.19C554.027 247.185 553.092 248.182 551.222 248.182C547.731 248.182 544.24 248.058 540.75 247.808C537.259 247.559 533.705 247.434 530.09 247.434C526.474 247.434 522.796 247.559 519.056 247.808C515.316 248.058 511.638 248.182 508.022 248.182C507.15 248.182 506.526 247.808 506.152 247.06C505.778 246.437 505.591 245.813 505.591 245.19C505.591 243.32 506.526 242.385 508.396 242.385C509.394 242.385 510.391 242.385 511.388 242.385C512.386 242.509 513.321 242.572 514.194 242.572C515.565 242.572 516.563 242.073 517.186 241.076C517.809 240.203 518.121 239.143 518.121 237.896C518.121 219.694 518.121 201.491 518.121 183.289C518.246 164.961 518.308 146.696 518.308 128.494C518.308 127.122 518.121 125.626 517.747 124.006C517.373 122.385 516.251 121.574 514.381 121.574C513.134 121.574 511.887 121.637 510.64 121.761C509.518 121.886 508.334 121.948 507.087 121.948C506.339 121.948 505.466 121.824 504.469 121.574C503.596 121.2 503.16 120.515 503.16 119.517C503.16 118.769 503.409 118.208 503.908 117.834C504.407 117.46 504.968 117.211 505.591 117.086C506.963 116.587 508.396 116.276 509.892 116.151C511.388 116.026 512.822 115.839 514.194 115.59C520.552 114.468 526.661 112.972 532.521 111.102C533.02 110.852 533.518 110.665 534.017 110.541C534.516 110.291 535.014 110.167 535.513 110.167C536.386 110.167 537.134 110.915 537.757 112.411C538.505 113.907 539.066 115.528 539.44 117.273C539.939 119.019 540.313 120.265 540.563 121.013C542.308 120.016 544.801 118.894 548.043 117.647C551.285 116.276 554.526 115.091 557.768 114.094C561.134 112.972 563.752 112.411 565.622 112.411C571.981 112.411 577.653 113.782 582.64 116.525C587.627 119.268 591.866 122.946 595.357 127.559C598.973 132.047 601.716 137.096 603.586 142.707C605.456 148.317 606.391 153.99 606.391 159.725Z" fill="black"/>
<path fill-rule="evenodd" clip-rule="evenodd" d="M440.435 102.541L483.705 26.331L399.291 49.8793L442.75 58.329L440.435 102.541ZM440.435 102.541L399.291 49.8793L399.291 49.8794L440.435 102.541L440.435 102.541Z" fill="#076EE3"/>
</svg>
