<svg width="250" height="250" viewBox="0 0 250 250" fill="none" xmlns="http://www.w3.org/2000/svg">
<path d="M89.7173 169.09C89.7173 169.09 88.2416 173.532 86.0151 175.752C85.3656 176.477 84.5658 177.051 83.6716 177.435C82.7774 177.819 81.8102 178.004 80.8373 177.976C77.1844 178.957 73.4715 179.699 69.7222 180.196C69.7222 180.196 74.9087 180.938 80.8373 181.679C83.0551 181.679 83.0551 181.679 84.5377 182.421C88.2416 182.421 89.7173 180.196 89.7173 180.196V169.09ZM157.854 169.09C157.854 169.09 159.337 173.532 161.556 175.752C162.208 176.476 163.009 177.05 163.904 177.434C164.799 177.819 165.767 178.004 166.741 177.976C170.391 178.957 174.101 179.699 177.848 180.196C177.848 180.196 172.668 180.938 166.001 181.679C163.781 181.679 163.781 181.679 162.297 182.421C157.854 182.421 157.112 180.196 157.112 180.196L157.854 169.09Z" fill="#E9654B"/>
<path d="M204.512 95.7679C204.512 139.941 168.701 175.752 124.528 175.752C80.3533 175.752 44.5444 139.941 44.5444 95.7679C44.5444 51.5999 80.3533 15.791 124.528 15.791C168.701 15.791 204.512 51.5999 204.512 95.7679Z" fill="#B6CFEA"/>
<path d="M201.551 95.7679C201.551 138.309 167.068 172.79 124.528 172.79C81.9939 172.79 47.5107 138.309 47.5107 95.7679C47.5107 53.2341 81.9939 18.7493 124.528 18.7493C167.068 18.7493 201.55 53.2324 201.55 95.7662L201.551 95.7679Z" fill="#E6F5F8"/>
<path d="M187.477 97.2522C187.477 132.019 159.297 160.201 124.528 160.201C89.7645 160.201 61.5776 132.019 61.5776 97.2505C61.5776 62.4886 89.7662 34.3018 124.528 34.3018C159.297 34.3018 187.477 62.4921 187.477 97.2522Z" fill="#D0E8F0"/>
<path d="M87.4995 126.875C87.4995 126.875 92.6842 210.561 92.6842 212.045C92.6842 212.78 93.4264 214.263 89.7173 215.747C86.0151 217.224 74.1665 220.19 74.1665 220.19H91.942C100.089 220.19 100.089 213.522 100.089 212.045C100.089 210.561 102.308 178.719 102.308 178.719C102.308 178.719 103.048 216.489 103.048 217.965C103.048 219.449 102.308 221.667 97.1285 223.151C93.4264 223.894 82.313 226.113 82.313 226.113H99.3481C109.719 226.113 109.719 219.449 109.719 219.449L111.937 186.123C111.937 186.123 112.679 219.449 112.679 223.151C112.679 226.113 110.46 228.338 102.308 229.814C97.1285 231.298 90.4594 232.78 90.4594 232.78H109.719C119.341 232.04 120.826 225.369 120.826 225.369L137.117 142.425L87.4995 126.875Z" fill="#EE794B"/>
<path d="M161.556 126.875C161.556 126.875 156.377 210.561 156.377 212.045C156.377 212.78 155.635 214.263 159.338 215.747C163.039 217.225 174.887 220.19 174.887 220.19H157.112C148.965 220.19 148.965 213.522 148.965 212.045C148.965 210.561 146.748 178.719 146.748 178.719C146.748 178.719 146.005 216.489 146.005 217.965C146.005 219.449 146.748 221.667 151.932 223.151L166.741 226.113H149.709C139.343 226.113 139.343 219.449 139.343 219.449L137.119 186.123C137.119 186.123 136.376 219.449 136.376 223.151C136.376 226.113 138.603 228.338 146.749 229.814C151.934 231.298 158.596 232.78 158.596 232.78H139.343C129.713 232.04 128.228 225.369 128.228 225.369L111.939 142.427L161.556 126.875ZM162.297 86.1441C162.297 106.881 145.263 123.173 125.268 123.173C105.275 123.173 88.2397 106.139 88.2397 86.1441C88.2397 66.1507 105.275 49.1156 125.268 49.1156C145.263 49.1156 162.297 65.4085 162.297 86.1441Z" fill="#EE794B"/>
<mask id="mask0_31_125" style="mask-type:luminance" maskUnits="userSpaceOnUse" x="86" y="84" width="77" height="90">
<path d="M86.1719 84.4297H162.828V173.281H86.1719V84.4297Z" fill="white"/>
</mask>
<g mask="url(#mask0_31_125)">
<mask id="mask1_31_125" style="mask-type:luminance" maskUnits="userSpaceOnUse" x="87" y="84" width="76" height="103">
<path d="M162.297 84.6614L157.854 186.123H91.2017L87.4995 84.6614" fill="white"/>
</mask>
<g mask="url(#mask1_31_125)">
<path d="M191.179 106.137C191.179 142.54 161.671 172.05 125.268 172.05C88.8671 172.05 59.3579 142.54 59.3579 106.139C59.3579 69.7362 88.8671 40.2288 125.268 40.2288C161.671 40.2288 191.179 69.7344 191.179 106.137Z" fill="#EE794B"/>
</g>
</g>
<mask id="mask2_31_125" style="mask-type:luminance" maskUnits="userSpaceOnUse" x="13" y="13" width="223" height="223">
<path d="M13 13H236V236H13V13Z" fill="black" fill-opacity="0.22"/>
</mask>
<g mask="url(#mask2_31_125)">
<mask id="mask3_31_125" style="mask-type:luminance" maskUnits="userSpaceOnUse" x="13" y="13" width="223" height="223">
<path d="M13 13H236V236H13V13Z" fill="white"/>
</mask>
<g mask="url(#mask3_31_125)">
<path d="M160.079 126.875C160.079 126.875 164.522 87.6213 158.595 72.8127C147.488 46.8907 121.566 49.1155 121.566 49.1155C121.566 49.1155 136.375 55.0372 137.117 77.2571C137.859 92.8078 137.117 115.768 137.117 115.768L160.079 126.875Z" fill="#E34E3B"/>
</g>
</g>
<mask id="mask4_31_125" style="mask-type:luminance" maskUnits="userSpaceOnUse" x="13" y="13" width="223" height="223">
<path d="M13 13H236V236H13V13Z" fill="black" fill-opacity="0.502"/>
</mask>
<g mask="url(#mask4_31_125)">
<mask id="mask5_31_125" style="mask-type:luminance" maskUnits="userSpaceOnUse" x="13" y="13" width="223" height="223">
<path d="M13 13H236V236H13V13Z" fill="white"/>
</mask>
<g mask="url(#mask5_31_125)">
<path d="M114.897 66.1507C114.897 66.8311 114.762 67.5048 114.502 68.1333C114.241 68.7618 113.859 69.3327 113.378 69.8136C112.896 70.2945 112.325 70.6759 111.696 70.9359C111.068 71.196 110.394 71.3297 109.713 71.3293C109.033 71.329 108.359 71.1946 107.731 70.9339C107.102 70.6732 106.531 70.2913 106.05 69.8099C105.569 69.3286 105.188 68.7572 104.928 68.1284C104.668 67.4997 104.534 66.8259 104.535 66.1454C104.535 64.7713 105.082 63.4537 106.054 62.4825C107.026 61.5113 108.344 60.9661 109.719 60.9668C111.093 60.9675 112.41 61.514 113.381 62.4862C114.353 63.4584 114.898 64.7765 114.897 66.1507Z" fill="#FBDFC3"/>
</g>
</g>
<path d="M137.859 141.683C137.859 154.274 131.932 162.427 124.528 162.427C117.123 162.427 111.195 152.797 111.195 140.208C111.195 140.208 117.123 152.054 125.268 152.054C133.415 152.054 137.859 141.683 137.859 141.683Z" fill="#010101"/>
<path d="M137.859 141.683C137.859 149.837 131.932 154.274 124.528 154.274C117.123 154.274 111.937 148.352 111.937 140.948C111.937 140.948 117.864 148.352 126.01 148.352C134.157 148.352 137.859 141.683 137.859 141.683Z" fill="white"/>
<path d="M173.403 106.881C173.403 119.559 163.128 129.835 150.45 129.835C137.77 129.835 127.488 119.559 127.488 106.881C127.488 94.2016 137.77 83.9192 150.45 83.9192C163.128 83.9192 173.403 94.2016 173.403 106.881ZM121.566 106.881C121.566 119.559 111.284 129.835 98.6042 129.835C85.9263 129.835 75.6509 119.559 75.6509 106.881C75.6509 94.2016 85.9263 83.9192 98.6059 83.9192C111.284 83.9192 121.566 94.2016 121.566 106.881Z" fill="#E9654B"/>
<path d="M168.225 106.881C168.225 116.695 160.264 124.657 150.45 124.657C140.636 124.657 132.673 116.695 132.673 106.881C132.673 97.0605 140.634 89.1057 150.45 89.1057C160.262 89.1057 168.225 97.0605 168.225 106.881ZM114.897 106.881C114.897 116.695 106.942 124.657 97.1286 124.657C87.3079 124.657 79.353 116.695 79.353 106.881C79.3526 104.547 79.812 102.235 80.7052 100.078C81.5983 97.9215 82.9076 95.9617 84.5583 94.311C86.209 92.6603 88.1688 91.351 90.3256 90.4579C92.4825 89.5647 94.7941 89.1053 97.1286 89.1057C106.942 89.1057 114.897 97.0605 114.897 106.881Z" fill="white"/>
<path d="M102.308 104.656C102.308 105.337 102.175 106.011 101.914 106.64C101.654 107.269 101.273 107.841 100.792 108.322C100.311 108.804 99.7395 109.186 99.1108 109.447C98.4821 109.707 97.8082 109.842 97.1275 109.842C96.4469 109.842 95.7728 109.709 95.1439 109.449C94.5149 109.188 93.9433 108.807 93.4618 108.326C92.9803 107.845 92.5982 107.274 92.3374 106.645C92.0766 106.016 91.9422 105.342 91.9419 104.662C91.941 103.287 92.4861 101.968 93.4575 100.996C94.4288 100.023 95.7468 99.4761 97.1214 99.4752C98.496 99.4743 99.8147 100.019 100.787 100.991C101.76 101.962 102.307 103.282 102.308 104.656ZM155.635 104.656C155.647 105.345 155.523 106.03 155.268 106.67C155.013 107.31 154.633 107.893 154.151 108.384C153.668 108.876 153.093 109.266 152.458 109.533C151.822 109.8 151.14 109.937 150.452 109.937C149.763 109.937 149.081 109.8 148.445 109.534C147.81 109.267 147.234 108.877 146.752 108.385C146.269 107.894 145.889 107.311 145.634 106.671C145.379 106.031 145.254 105.347 145.267 104.658C145.291 103.3 145.848 102.005 146.817 101.053C147.786 100.101 149.09 99.5672 150.449 99.5668C151.808 99.5663 153.112 100.099 154.082 101.051C155.052 102.002 155.609 103.298 155.635 104.656Z" fill="#010101"/>
<path d="M43.0664 115.768C42.5723 115.799 42.0773 115.724 41.6143 115.549C41.1512 115.373 40.7307 115.102 40.3807 114.752C40.0306 114.402 39.759 113.981 39.5837 113.518C39.4085 113.055 39.3337 112.56 39.3642 112.066V82.4435C39.3333 81.9491 39.4077 81.4539 39.5825 80.9905C39.7573 80.5271 40.0285 80.106 40.3782 79.7553C40.729 79.4056 41.15 79.1344 41.6134 78.9596C42.0768 78.7848 42.5721 78.7104 43.0664 78.7413C43.5605 78.7107 44.0555 78.7856 44.5185 78.9608C44.9816 79.136 45.402 79.4077 45.7521 79.7578C46.1022 80.1078 46.3738 80.5283 46.5491 80.9913C46.7243 81.4544 46.7991 81.9493 46.7685 82.4435V112.068C46.8295 113.061 46.4549 114.042 45.7476 114.751C45.3979 115.101 44.9779 115.372 44.5155 115.548C44.053 115.724 43.5585 115.799 43.0647 115.77L43.0664 115.768ZM204.511 115.768C204.017 115.798 203.523 115.722 203.06 115.546C202.598 115.37 202.178 115.098 201.828 114.747C201.479 114.398 201.207 113.978 201.031 113.516C200.856 113.054 200.78 112.559 200.809 112.066V82.4435C200.78 81.9487 200.855 81.4532 201.031 80.9898C201.207 80.5264 201.48 80.1056 201.83 79.7553C202.18 79.4058 202.599 79.1346 203.062 78.9598C203.524 78.785 204.018 78.7105 204.511 78.7413C205.005 78.7105 205.499 78.785 205.961 78.9598C206.423 79.1346 206.843 79.4058 207.193 79.7553C207.907 80.4643 208.273 81.4452 208.214 82.4435V112.068C208.244 112.562 208.169 113.057 207.993 113.519C207.817 113.982 207.544 114.402 207.193 114.751C206.843 115.101 206.423 115.373 205.961 115.549C205.498 115.724 205.004 115.8 204.51 115.77L204.511 115.768Z" fill="#B6CFEA"/>
<path d="M103.05 36.5265C103.05 37.5084 102.66 38.45 101.965 39.1443C101.271 39.8386 100.33 40.2286 99.3476 40.2286C98.3658 40.2286 97.4241 39.8386 96.7298 39.1443C96.0355 38.45 95.6455 37.5084 95.6455 36.5265C95.6455 35.5446 96.0355 34.603 96.7298 33.9087C97.4241 33.2144 98.3658 32.8243 99.3476 32.8243C100.33 32.8243 101.271 33.2144 101.965 33.9087C102.66 34.603 103.05 35.5446 103.05 36.5265ZM72.6904 136.504C72.2876 136.555 71.8784 136.514 71.4931 136.386C71.1078 136.258 70.7561 136.045 70.4639 135.763C61.577 124.657 57.1327 110.583 57.1327 96.51C57.093 84.8097 60.1604 73.3086 66.0213 63.182C71.9626 53.5431 80.0775 45.4287 89.7168 39.4882C90.3356 39.2107 91.0255 39.1329 91.6905 39.2656C92.3556 39.3983 92.9628 39.7349 93.4277 40.2286C93.7025 40.8468 93.7785 41.535 93.6453 42.1982C93.512 42.8614 93.176 43.4668 92.6838 43.9308C83.4967 49.1214 75.8476 56.6517 70.514 65.7565C65.1804 74.8613 62.3524 85.2159 62.3175 95.7678C62.2969 108.94 66.7345 121.732 74.9082 132.061C75.6504 132.803 75.6504 135.023 74.1661 135.763C73.4256 136.505 73.4256 136.504 72.6904 136.504Z" fill="white"/>
<mask id="mask6_31_125" style="mask-type:luminance" maskUnits="userSpaceOnUse" x="13" y="13" width="223" height="223">
<path d="M13 13H236V236H13V13Z" fill="black" fill-opacity="0.251"/>
</mask>
<g mask="url(#mask6_31_125)">
<mask id="mask7_31_125" style="mask-type:luminance" maskUnits="userSpaceOnUse" x="13" y="13" width="223" height="223">
<path d="M13 13H236V236H13V13Z" fill="white"/>
</mask>
<g mask="url(#mask7_31_125)">
<path d="M157.854 171.307V165.389C147.488 171.309 136.375 177.236 123.05 177.236C108.235 177.236 98.6058 170.574 88.9819 165.389L89.7171 171.309C89.7171 171.309 100.832 183.165 123.786 183.165C145.263 182.423 157.854 171.307 157.854 171.307Z" fill="#E9654B"/>
</g>
</g>
</svg>
