<svg width="250" height="250" viewBox="0 0 250 250" fill="none" xmlns="http://www.w3.org/2000/svg">
<path d="M129.483 24C150.697 30.0133 170.024 45.1667 178.038 63.6878C190.295 93.7543 187.466 131.758 174.031 154.368C162.717 172.889 145.275 182.751 125.24 182.51C94.1276 182.27 68.9075 157.014 68.6718 125.264C68.6718 93.5136 93.1849 67.2958 125.24 67.2958C130.426 67.2958 137.903 68.0288 146.388 71.6366C146.388 71.6366 140.288 67.9541 124.621 65.4804C79.6016 59.4671 26.4809 94.2353 38.7375 174.332C55.708 205.12 88.2352 226.047 125.24 225.806C179.688 225.566 224.236 180.105 224.002 124.302C224.002 70.9037 181.338 25.4432 129.483 24Z" fill="url(#paint0_linear_31_85)"/>
<path d="M166.487 66.5719C158.945 50.4562 143.388 37.708 124.296 32.6568C120.054 31.4542 115.575 30.9731 110.626 30.7325C103.319 30.7325 96.2476 31.6947 88.9408 33.619C70.7916 39.1512 58.0637 49.9752 50.5212 58.3937C40.8574 69.6986 34.4934 81.4847 30.7221 93.2708C30.7221 93.5114 30.4864 93.7519 30.4864 94.2329C30.2507 95.1951 29.3079 98.0814 29.3079 98.8031C29.0722 99.2842 29.0722 100.006 28.8365 100.487C28.6008 101.449 28.3651 102.411 28.1294 103.373C28.1294 103.614 28.1294 103.854 27.8937 104.095C21.7654 135.123 31.9459 162.969 38.0742 173.311C39.607 175.898 40.8657 178.057 42.1272 180.037C28.2207 103.067 68.1989 66.3312 113.69 65.3691C137.496 64.8882 161.302 74.7499 172.851 94.4736C172.144 83.6495 171.437 77.6362 166.487 66.5719Z" fill="url(#paint1_linear_31_85)"/>
<defs>
<linearGradient id="paint0_linear_31_85" x1="12634.1" y1="-5223.9" x2="-4003.4" y2="3574.72" gradientUnits="userSpaceOnUse">
<stop stop-color="#FF7BFF"/>
<stop offset="0.350158" stop-color="#AA00FF"/>
<stop offset="1" stop-color="#8800CC"/>
</linearGradient>
<linearGradient id="paint1_linear_31_85" x1="5350.7" y1="-2860.23" x2="16586.7" y2="6565.23" gradientUnits="userSpaceOnUse">
<stop offset="0.0354358" stop-color="#FF7BFF"/>
<stop offset="0.576537" stop-color="#8800CC"/>
<stop offset="1" stop-color="#311B92"/>
</linearGradient>
</defs>
</svg>
