<svg width="250" height="250" viewBox="0 0 250 250" fill="none" xmlns="http://www.w3.org/2000/svg">
<path d="M154.434 182.252L104.864 158.424C99.9813 156.08 97.8719 150.143 100.255 145.221L124.083 95.6504C126.427 90.7676 132.364 88.6582 137.286 91.041C144.005 94.2832 147.872 96.1192 147.872 96.1192L147.833 53.4629L154.356 53.4238L154.395 99.166C154.395 99.166 176.817 108.619 186.856 114.83C188.302 115.729 190.841 117.486 191.895 120.455C192.716 122.838 192.677 125.572 191.505 127.994L167.677 177.564C165.255 182.525 159.317 184.635 154.434 182.252Z" fill="white"/>
<path d="M243.028 51.627C241.426 50.0254 239.278 50.0645 239.278 50.0645C239.278 50.0645 193.497 52.6426 169.786 53.1895C164.59 53.3066 159.434 53.4238 154.317 53.4629C154.317 68.7363 154.317 84.0098 154.317 99.2441C152.169 98.2285 149.981 97.1738 147.833 96.1582C147.833 81.9394 147.794 53.502 147.794 53.502C136.465 53.6582 112.95 52.6426 112.95 52.6426C112.95 52.6426 57.7155 49.8691 51.6999 49.3223C47.8717 49.0879 42.9108 48.502 36.4655 49.9082C33.0671 50.6113 23.3796 52.7988 15.4499 60.416C-2.12825 76.0801 2.36394 101.002 2.91081 104.752C3.57487 109.322 5.60613 122.018 15.2936 133.072C33.1843 154.986 71.6999 154.479 71.6999 154.479C71.6999 154.479 76.4264 165.768 83.653 176.158C93.4186 189.088 103.458 199.166 113.223 200.377C137.833 200.377 187.012 200.338 187.012 200.338C187.012 200.338 191.7 200.377 198.067 196.314C203.536 192.994 208.419 187.174 208.419 187.174C208.419 187.174 213.458 181.783 220.489 169.479C222.637 165.689 224.434 162.018 225.997 158.541C225.997 158.541 247.559 112.799 247.559 68.2676C247.13 54.791 243.809 52.4082 243.028 51.627ZM48.8483 131.354C38.7311 128.033 34.4342 124.049 34.4342 124.049C34.4342 124.049 26.9733 118.814 23.2233 108.502C16.778 91.2363 22.6764 80.6895 22.6764 80.6895C22.6764 80.6895 25.9577 71.9004 37.7155 68.9707C43.1061 67.5254 49.8249 67.7598 49.8249 67.7598C49.8249 67.7598 52.5983 90.9629 55.9577 104.557C58.7702 115.963 65.6452 134.908 65.6452 134.908C65.6452 134.908 55.4499 133.697 48.8483 131.354ZM166.153 173.385C166.153 173.385 163.77 179.049 158.497 179.4C156.231 179.557 154.473 178.932 154.473 178.932C154.473 178.932 154.356 178.893 152.403 178.111L108.301 156.627C108.301 156.627 104.044 154.4 103.301 150.533C102.442 147.369 104.356 143.463 104.356 143.463L125.567 99.752C125.567 99.752 127.442 95.9629 130.333 94.6738C130.567 94.5566 131.231 94.2832 132.09 94.0879C135.255 93.2676 139.122 95.1816 139.122 95.1816L182.364 116.158C182.364 116.158 187.286 118.385 188.34 122.486C189.083 125.377 188.145 127.955 187.637 129.205C185.176 135.221 166.153 173.385 166.153 173.385Z" fill="#609926"/>
<path d="M127.442 141.588C124.239 141.627 121.426 143.854 120.684 146.979C119.942 150.104 121.465 153.346 124.239 154.791C127.247 156.354 131.075 155.494 133.106 152.682C135.098 149.908 134.786 146.08 132.403 143.658L141.778 124.479C142.364 124.518 143.223 124.557 144.2 124.283C145.801 123.932 146.973 122.877 146.973 122.877C148.614 123.58 150.333 124.361 152.129 125.26C154.004 126.197 155.762 127.174 157.364 128.111C157.715 128.307 158.067 128.541 158.458 128.854C159.083 129.361 159.786 130.064 160.294 131.002C161.036 133.15 159.551 136.822 159.551 136.822C158.653 139.791 152.364 152.682 152.364 152.682C149.2 152.604 146.387 154.635 145.45 157.564C144.434 160.729 145.879 164.322 148.926 165.885C151.973 167.447 155.723 166.549 157.715 163.814C159.669 161.158 159.512 157.447 157.286 154.986C158.028 153.541 158.731 152.096 159.473 150.572C161.426 146.51 164.747 138.697 164.747 138.697C165.098 138.033 166.973 134.674 165.801 130.377C164.825 125.924 160.879 123.854 160.879 123.854C156.114 120.768 149.473 117.916 149.473 117.916C149.473 117.916 149.473 116.314 149.044 115.143C148.614 113.932 147.95 113.15 147.52 112.682C149.356 108.893 151.192 105.143 153.028 101.354C151.426 100.572 149.864 99.791 148.262 98.9707C146.387 102.799 144.473 106.666 142.598 110.494C139.981 110.455 137.559 111.861 136.309 114.166C134.981 116.627 135.254 119.674 137.051 121.9C133.848 128.463 130.645 135.025 127.442 141.588Z" fill="#609926"/>
</svg>
