<svg width="250" height="250" viewBox="0 0 250 250" fill="none" xmlns="http://www.w3.org/2000/svg">
<path d="M81.1841 96.3401L85.5408 198.299L163.907 104.284C166.403 101.334 170.947 100.792 174.086 103.2L223 140.072L207.059 74.5665L81.1841 96.3401Z" fill="#4279F4"/>
<path d="M88.2314 217H157.764L115.121 184.82L88.2314 217Z" fill="#0028AA"/>
<path d="M170.76 118.052L124.021 174.112L173.832 211.649L221.086 155.947L170.76 118.052Z" fill="#014BD1"/>
<path d="M68.0611 86.4755L109.165 37.9961L42.8313 68.0148L26.4419 135.448L68.0611 86.4817V86.4755Z" fill="#BEDCFF"/>
<path d="M27.4053 156.131L71.4538 208.041L67.231 109.21L27.4053 156.125V156.131Z" fill="#6CA1FF"/>
<path d="M194.323 62.9531L130.934 34.2583L91.4297 80.755L194.323 62.9531Z" fill="#A1C3FF"/>
</svg>
