<svg width="250" height="250" viewBox="0 0 250 250" fill="none" xmlns="http://www.w3.org/2000/svg">
<path d="M205.381 167.741C196.205 180.922 182.169 189.714 166.327 191.002C165.833 191.037 165.339 191.072 164.838 191.107C146.263 192.087 132.227 183.078 122.919 174.72C106.459 165.453 93.5682 163.122 86.0328 161.106C80.5525 159.636 75.7572 156.703 73.7021 155.233C71.8775 154.085 68.2086 151.411 65.475 146.434C62.4121 140.848 62.2343 135.522 62.2804 133.254C63.881 133.023 65.9427 132.778 68.3535 132.617C70.3296 132.484 72.2398 132.428 74.3871 132.421C91.019 132.4 103.923 133.268 113.316 137.699C118.394 140.085 123.097 143.27 127.293 147.155C132.688 152.153 143.714 160.063 157.296 157.361C159.029 157.018 160.689 156.563 162.283 156.003C167.177 155.261 175.542 154.659 185.396 157.438C194.75 160.077 201.475 164.641 205.381 167.741Z" fill="#0A60B5" stroke="black" stroke-width="8" stroke-miterlimit="10"/>
<path d="M204.155 76.9687C200.025 71.2779 195 65.8951 189.065 62.2273C182.741 58.3144 174.672 54.9475 164.917 54.0376C141.073 51.8046 124.77 65.8601 121.799 68.52C118.104 72.2019 103.323 85.2424 85.5318 92.4802C82.4293 93.6561 76.4616 96.428 71.1592 102.623C66.9633 107.516 64.9082 112.527 63.9004 115.635C66.0214 115.95 68.2148 116.174 70.4741 116.314C87.7252 117.329 102.546 117.434 112.248 112.387C118.651 109.056 124.269 104.317 129.117 98.759C137.845 88.7493 150.584 84.2765 162.177 87.3424C167.499 88.1333 176.774 88.7353 187.497 85.2424C194.901 82.8345 200.421 79.7966 204.155 76.9687Z" fill="#0A60B5" stroke="black" stroke-width="8" stroke-miterlimit="10"/>
<path d="M42.355 81.1896C35.7418 77.5777 30.5776 73.4129 27.0602 70.151C25.0907 68.3241 22.0278 69.822 22.0278 72.6079V95.3991C22.0278 96.3931 22.4494 97.338 23.174 97.947L31.9609 106.935C32.422 103.323 33.4166 98.409 35.6561 92.9772C37.7574 87.8534 40.2867 83.9335 42.355 81.1896Z" fill="#0A60B5" stroke="black" stroke-width="8" stroke-miterlimit="10"/>
<path d="M183.829 132.057C184.836 128.767 185.396 125.316 185.475 121.795C185.548 119.016 185.245 117.973 184.79 115.285C189.467 114.445 195.303 113.087 200.625 111.624C206.257 110.078 210.413 108.286 215.09 106.501C215.768 109.98 216.486 111.666 216.737 114.242C216.967 116.671 217.112 119.191 217.158 121.795C217.283 129.887 216.348 137.223 214.919 143.655C210.512 141.226 205.276 138.707 199.249 136.502C193.643 134.437 188.433 133.03 183.829 132.057Z" fill="#0A60B5" stroke="black" stroke-width="8" stroke-miterlimit="10"/>
<path d="M26.856 180.187C24.8339 181.741 22.0278 180.208 22.0278 177.541V149.549C22.0278 148.702 22.3374 147.897 22.871 147.295C23.1344 147.001 23.3781 146.833 23.4901 146.763L32.1914 142.794C32.8304 146.504 33.8908 150.942 35.6561 155.779C37.7178 161.428 40.1682 166.013 42.355 169.491C37.1843 173.061 32.0136 176.624 26.8494 180.187H26.856Z" fill="#0A60B5" stroke="black" stroke-width="8" stroke-miterlimit="10"/>
<path fill-rule="evenodd" clip-rule="evenodd" d="M82.917 57.8804C100.326 56.9634 113.348 64.7122 120.061 69.892C114.975 74.6588 101.229 86.1664 84.9655 92.8162C83.8721 93.2291 82.4164 93.8451 80.7565 94.7481C68.9923 100.908 61.997 113.178 61.6808 126.289C61.6347 128.501 61.7401 130.699 62.0102 132.862C61.9838 132.862 61.9509 132.869 61.9245 132.869C61.8784 135.116 62.0563 140.407 65.1126 145.951C67.8462 150.893 71.5085 153.539 73.333 154.68C74.2355 155.324 75.6714 156.248 77.463 157.2C79.5643 158.39 81.896 159.391 84.4649 160.161C84.8601 160.287 85.2553 160.399 85.6637 160.504C86.5991 160.756 87.6135 161.008 88.7135 161.288C96.4728 163.248 108.23 166.209 122.643 174.258C124.098 175.56 125.666 176.869 127.352 178.143C126.838 178.633 126.41 179.06 126.061 179.403C123.091 182.077 106.775 196.202 82.917 193.963C73.1486 193.046 65.0665 189.658 58.7431 185.731C48.0986 179.116 40.0494 168.651 35.6626 156.402C32.8302 148.506 30.3667 138.294 30.1888 126.275C30.0308 116.013 31.5787 106.977 33.6865 99.4799C40.1482 76.5767 58.9802 59.7773 81.4283 57.9854C81.9224 57.9434 82.4164 57.9084 82.917 57.8804ZM204.867 167.041C200.961 163.962 194.255 159.468 184.968 156.864C175.114 154.106 166.755 154.708 161.868 155.45C160.267 156.003 158.614 156.451 156.888 156.794C143.306 159.475 132.286 151.628 126.898 146.665C125.85 145.699 124.77 144.782 123.657 143.907C127.286 140.519 131.271 137.594 135.619 135.326C145.328 130.258 160.162 130.363 177.426 131.378C201.218 132.792 217.652 144.838 224.213 150.368C224.944 150.984 225.365 151.915 225.365 152.909V175.637C225.365 178.423 222.289 179.914 220.313 178.087C216.763 174.825 211.553 170.653 204.867 167.034V167.041ZM128.584 99.1229C127.029 100.922 125.389 102.63 123.664 104.24C126.997 106.865 130.6 109.091 134.407 110.869C143.793 115.264 156.69 116.125 173.316 116.104C197.7 116.069 215.663 106.305 223.903 100.992C224.812 100.404 225.365 99.3539 225.365 98.22V70.326C225.365 67.6661 222.546 66.1401 220.517 67.6941C215.716 71.3619 208.582 76.0448 199.38 79.7336C196.067 81.8055 191.937 83.9265 187.016 85.5364C176.28 89.0433 166.999 88.4413 161.677 87.6503C150.07 84.5704 137.325 89.0573 128.584 99.1229Z" fill="#E11312"/>
<path d="M120.061 69.892L121.8 71.9919L124.263 69.675L121.608 67.6241L120.061 69.892ZM82.917 57.8804L82.7853 55.0805L82.7787 55.0875H82.7721L82.917 57.8804ZM84.9656 92.8162L85.8548 95.4481L85.8877 95.4411L85.9141 95.4271L84.9656 92.8162ZM80.7565 94.7481L81.9224 97.261L81.9422 97.254L81.9553 97.24L80.7565 94.7481ZM62.0102 132.862L62.3593 135.634L64.9743 135.27L64.6252 132.484L62.0102 132.862ZM61.9246 132.869L61.5755 130.097L59.3425 130.412L59.2898 132.806L61.9246 132.869ZM73.3331 154.68L74.7954 152.349L74.7361 152.307L74.6702 152.272L73.3331 154.68ZM77.4631 157.2L78.7014 154.729L78.6751 154.715L78.6421 154.701L77.4631 157.2ZM84.465 160.161L85.2027 157.473H85.1895L85.1829 157.466L84.465 160.161ZM122.643 174.258L124.335 172.116L124.118 171.92L123.868 171.78L122.643 174.258ZM127.352 178.143L129.104 180.236L131.555 177.905L128.88 175.868L127.352 178.143ZM126.061 179.403L127.761 181.545L127.82 181.496L127.866 181.44L126.061 179.403ZM58.7431 185.731L60.0737 183.316V183.309L58.7431 185.731ZM33.6865 99.4799L31.1637 98.675V98.682L33.6865 99.4799ZM81.4284 57.9854L81.2505 55.1855L81.244 55.1925H81.2308L81.4284 57.9854ZM81.4284 57.9854L81.6062 60.7783H81.6128L81.4284 57.9854ZM184.968 156.864L185.64 154.162H185.633L184.968 156.864ZM204.867 167.035L203.299 169.288L203.477 169.428L203.668 169.533L204.867 167.035ZM161.868 155.45L161.492 152.678L161.268 152.706L161.044 152.783L161.868 155.45ZM126.898 146.665L128.624 144.544H128.617L126.898 146.665ZM123.657 143.907L121.918 141.8L119.468 144.089L122.089 146.154L123.657 143.907ZM224.213 150.368L225.853 148.177V148.17L224.213 150.368ZM123.664 104.24L121.925 102.133L119.481 104.422L122.096 106.487L123.664 104.24ZM134.407 110.869L135.474 108.307H135.467L134.407 110.869ZM173.316 116.104V118.904H173.322L173.316 116.104ZM199.38 79.7336L198.451 77.1087L198.234 77.1927L198.043 77.3187L199.38 79.7336ZM161.677 87.6504L161.038 90.3663L161.169 90.4013L161.308 90.4223L161.677 87.6504ZM121.608 67.6241C114.626 62.2413 101.018 54.1216 82.7853 55.0805L83.0422 60.6733C99.6346 59.8054 112.071 67.1831 118.513 72.1599L121.608 67.6241ZM85.9141 95.4271C102.586 88.6093 116.609 76.8637 121.8 71.9919L118.315 67.7921C113.349 72.4539 99.8717 83.7235 84.0236 90.1983L85.9141 95.4271ZM81.9553 97.24C83.4967 96.407 84.8404 95.8331 85.8548 95.4481L84.0829 90.1773C82.9039 90.6252 81.3428 91.2902 79.5643 92.2562L81.9553 97.24ZM64.3156 126.366C64.6054 114.27 71.054 102.945 81.9224 97.261L79.5972 92.2352C66.9306 98.864 59.3886 112.093 59.0527 126.219L64.3156 126.366ZM64.6252 132.484C64.3683 130.475 64.2695 128.431 64.3156 126.366L59.0527 126.219C58.9934 128.571 59.1054 130.916 59.4018 133.233L64.6252 132.484ZM62.2737 135.648C62.3 135.641 62.3264 135.641 62.3593 135.634L61.6677 130.083C61.6348 130.083 61.6084 130.09 61.5755 130.097L62.2737 135.648ZM67.3851 144.53C64.6779 139.623 64.5132 134.927 64.5593 132.932L59.2898 132.806C59.2371 135.312 59.4347 141.198 62.8402 147.365L67.3851 144.53ZM74.6702 152.272C73.0564 151.257 69.8025 148.905 67.3851 144.53L62.8402 147.365C65.8899 152.874 69.9672 155.821 71.9959 157.095L74.6702 152.272ZM78.6421 154.701C76.9493 153.798 75.6122 152.93 74.7954 152.349L71.8708 157.011C72.8654 157.718 74.3936 158.698 76.2774 159.706L78.6421 154.701ZM85.1829 157.466C82.7853 156.745 80.6248 155.821 78.7014 154.729L76.2247 159.671C78.4972 160.959 81.0068 162.03 83.747 162.856L85.1829 157.466ZM86.3027 157.788C85.9338 157.69 85.565 157.585 85.2027 157.473L83.7338 162.849C84.1554 162.982 84.5835 163.108 85.0183 163.22L86.3027 157.788ZM89.3261 158.565C88.2195 158.285 87.2183 158.033 86.3027 157.788L85.0183 163.22C85.9734 163.472 87.0141 163.738 88.1075 164.011L89.3261 158.565ZM123.868 171.78C109.153 163.563 97.1316 160.532 89.3261 158.565L88.1075 164.011C95.8142 165.957 107.308 168.854 121.417 176.736L123.868 171.78ZM128.88 175.868C127.26 174.636 125.745 173.369 124.335 172.116L120.95 176.407C122.452 177.744 124.072 179.095 125.818 180.425L128.88 175.868ZM127.866 181.44C128.202 181.104 128.617 180.698 129.104 180.236L125.594 176.057C125.06 176.568 124.612 177.009 124.25 177.373L127.866 181.44ZM82.6799 196.748C107.631 199.093 124.645 184.345 127.761 181.545L124.362 177.268C121.529 179.809 105.918 193.312 83.1476 191.17L82.6799 196.748ZM57.4125 188.146C64.0126 192.248 72.4702 195.789 82.6799 196.748L83.1476 191.17C73.8271 190.295 66.1204 187.068 60.0737 183.316L57.4125 188.146ZM33.1991 157.396C37.7902 170.205 46.2214 181.188 57.4191 188.146L60.0737 183.309C49.9759 177.037 42.3088 167.091 38.1195 155.401L33.1991 157.396ZM27.5541 126.324C27.7386 138.721 30.2811 149.255 33.1991 157.396L38.1195 155.408C35.3794 147.75 32.9949 137.867 32.8236 126.233L27.5541 126.324ZM31.1637 98.682C28.9901 106.41 27.3895 115.733 27.5541 126.324L32.8236 126.233C32.6721 116.3 34.1674 107.544 36.2093 100.285L31.1637 98.682ZM81.2308 55.1925C57.6431 57.0755 37.9219 74.7148 31.1637 98.675L36.2093 100.285C42.3681 78.4387 60.3174 62.4793 81.626 60.7713L81.2308 55.1925ZM82.7721 55.0875C82.2518 55.1155 81.738 55.1505 81.244 55.1855L81.6128 60.7783C82.1068 60.7363 82.5811 60.7013 83.0619 60.6733L82.7721 55.0875ZM184.296 159.573C193.162 162.058 199.564 166.349 203.299 169.288L206.435 164.788C202.351 161.575 195.342 156.878 185.64 154.162L184.296 159.573ZM162.236 158.215C166.907 157.508 174.89 156.941 184.296 159.573L185.633 154.162C175.344 151.278 166.604 151.901 161.492 152.678L162.236 158.215ZM157.369 159.545C159.207 159.181 160.978 158.698 162.684 158.11L161.044 152.783C159.562 153.301 158.014 153.721 156.401 154.043L157.369 159.545ZM125.172 148.779C130.745 153.917 142.581 162.464 157.369 159.545L156.407 154.043C144.03 156.479 133.827 149.339 128.624 144.544L125.172 148.779ZM122.089 146.154C123.143 146.987 124.177 147.862 125.172 148.779L128.617 144.544C127.524 143.536 126.391 142.57 125.225 141.653L122.089 146.154ZM134.46 132.813C129.882 135.2 125.699 138.273 121.918 141.8L125.396 146.007C128.867 142.766 132.668 139.987 136.785 137.839L134.46 132.813ZM177.571 128.585C168.922 128.074 160.768 127.787 153.522 128.277C146.296 128.767 139.762 130.041 134.46 132.813L136.785 137.839C141.185 135.536 146.922 134.332 153.858 133.863C160.768 133.394 168.659 133.667 177.281 134.178L177.571 128.585ZM225.853 148.17C219.088 142.472 202.133 130.041 177.571 128.585L177.281 134.178C200.302 135.543 216.223 147.204 222.579 152.559L225.853 148.17ZM228 152.909C228 151.075 227.223 149.332 225.853 148.177L222.579 152.559C222.671 152.643 222.731 152.762 222.731 152.909H228ZM228 175.637V152.909H222.731V175.637H228ZM218.581 180.201C222.27 183.61 228 180.817 228 175.637H222.731C222.731 175.77 222.698 175.84 222.671 175.889C222.632 175.945 222.573 176.001 222.487 176.043C222.401 176.085 222.316 176.099 222.256 176.085C222.204 176.085 222.131 176.064 222.039 175.973L218.581 180.201ZM203.668 169.533C210.123 173.019 215.162 177.051 218.587 180.208L222.039 175.973C218.37 172.599 212.975 168.28 206.059 164.543L203.668 169.533ZM125.409 106.34C127.201 104.667 128.907 102.889 130.521 101.02L126.654 97.226C125.152 98.9549 123.578 100.6 121.925 102.133L125.409 106.34ZM135.467 108.307C131.838 106.613 128.413 104.492 125.238 101.993L122.096 106.487C125.587 109.238 129.361 111.569 133.346 113.43L135.467 108.307ZM173.316 113.304C156.624 113.325 144.274 112.429 135.474 108.307L133.346 113.43C143.312 118.099 156.75 118.925 173.316 118.904V113.304ZM222.533 98.598C214.517 103.771 197.035 113.269 173.316 113.304L173.322 118.904C198.372 118.862 216.809 108.846 225.267 103.386L222.533 98.598ZM222.731 98.22C222.731 98.381 222.658 98.521 222.526 98.605L225.267 103.386C226.966 102.287 228 100.334 228 98.22H222.731ZM222.731 70.326V98.22H228V70.326H222.731ZM222.059 69.962C222.349 69.738 222.731 69.962 222.731 70.326H228C228 65.3772 222.737 62.5423 218.976 65.4192L222.059 69.962ZM200.309 82.3515C209.774 78.5577 217.119 73.7419 222.059 69.962L218.976 65.4192C214.319 68.982 207.39 73.5319 198.451 77.1087L200.309 82.3515ZM187.787 88.2103C192.938 86.5304 197.252 84.3115 200.717 82.1416L198.043 77.3187C194.875 79.2997 190.936 81.3226 186.239 82.8625L187.787 88.2103ZM161.308 90.4223C166.867 91.2482 176.563 91.8782 187.787 88.2103L186.239 82.8625C175.997 86.2084 167.137 85.6344 162.039 84.8715L161.308 90.4223ZM130.521 101.02C138.682 91.6262 150.472 87.5594 161.038 90.3663L162.309 84.9275C149.675 81.5746 135.968 86.4954 126.647 97.226L130.521 101.02Z" fill="black"/>
</svg>
