<svg width="250" height="250" viewBox="0 0 250 250" fill="none" xmlns="http://www.w3.org/2000/svg">
<path d="M182.236 129.436H207.314C212.233 129.436 216.217 133.421 216.217 138.34V153.134C216.217 158.053 212.233 162.038 207.314 162.038H185.441C183.077 162.038 180.813 162.979 179.142 164.649L141.609 202.176C139.938 203.847 137.674 204.787 135.31 204.787H117.267C112.441 204.787 108.487 200.939 108.364 196.112L107.974 181.009C107.844 176.003 111.866 171.87 116.877 171.87H132.408C134.772 171.87 137.037 170.929 138.707 169.259L175.925 132.041C177.595 130.371 179.86 129.43 182.223 129.43L182.236 129.436Z" fill="black"/>
<path d="M107.776 45.2128H132.854C137.773 45.2128 141.758 49.1975 141.758 54.1165V68.9106C141.758 73.8298 137.773 77.8144 132.854 77.8144H110.981C108.618 77.8144 106.353 78.7553 104.682 80.4255L67.149 117.959C65.4783 119.63 63.2139 120.57 60.8501 120.57H42.8074C37.9811 120.57 34.0273 116.721 33.9036 111.895L33.5138 96.7915C33.3839 91.7862 37.4057 87.659 42.4176 87.659H57.948C60.3118 87.659 62.5761 86.7186 64.2469 85.0479L101.464 47.8301C103.135 46.1595 105.4 45.2189 107.763 45.2189L107.776 45.2128Z" fill="black"/>
<path d="M182.236 64.2708H207.314C212.233 64.2708 216.218 68.2553 216.218 73.1745V87.9686C216.218 92.8878 212.233 96.8723 207.314 96.8723H185.441C183.077 96.8723 180.813 97.8128 179.142 99.4835L141.609 137.016C139.938 138.687 137.673 139.628 135.31 139.628H113.388C111.092 139.628 108.884 140.513 107.225 142.103L65.0884 182.482C63.4299 184.072 61.2214 184.957 58.9256 184.957H43.5683C38.6493 184.957 34.6646 180.966 34.6646 176.054V160.851C34.6646 155.932 38.6493 151.947 43.5683 151.947H58.8144C61.1777 151.947 63.4426 151.006 65.1134 149.336L105.128 109.322C106.798 107.651 109.063 106.711 111.426 106.711H132.408C134.772 106.711 137.036 105.77 138.707 104.099L175.925 66.8819C177.595 65.2112 179.86 64.2708 182.223 64.2708H182.236Z" fill="black"/>
</svg>
