<svg width="250" height="250" viewBox="0 0 250 250" fill="none" xmlns="http://www.w3.org/2000/svg">
<path d="M184.516 51.1494C146.235 24.2344 94.0891 29.4745 61.8531 63.535C29.7357 97.5955 27.2469 150.234 56.0459 187.153L84.845 165.955C70.5047 148.21 67.6604 123.796 77.3786 103.193C86.9782 82.4707 107.6 69.2514 130.355 69.0133V91.5218L184.516 51.1494Z" fill="#43C9ED"/>
<path d="M75.6025 205.851C113.883 232.766 166.029 227.526 198.147 193.465C230.264 159.405 232.753 106.766 203.954 69.7278L175.273 90.9263C189.495 108.79 192.458 133.204 182.74 153.807C173.022 174.529 152.4 187.749 129.645 187.987V165.359L75.6025 205.851Z" fill="#0194E2"/>
</svg>
