<svg width="250" height="250" viewBox="0 0 250 250" fill="none" xmlns="http://www.w3.org/2000/svg">
<g clip-path="url(#clip0_31_77)">
<path d="M77.5726 21.0584C75.4999 21.3718 73.0137 22.3845 71.2583 23.6353C65.9504 27.3998 61.8389 35.3952 60.099 45.3553C59.4463 49.1223 58.999 54.3489 58.999 58.3393C58.999 63.0437 59.5893 69.0572 60.4345 73.2127C60.627 74.1356 60.7206 74.9541 60.6426 75.0148C60.5776 75.0731 59.7974 75.6681 58.921 76.3239C55.9224 78.5559 52.4948 81.9974 50.1361 85.1377C45.6084 91.1366 42.6749 97.9565 41.4474 105.34C40.9689 108.259 40.8415 114.156 41.2237 117.073C42.0689 123.803 44.2379 129.489 47.9515 134.701L49.1634 136.384L48.8124 136.935C46.3262 140.835 44.2067 146.477 43.2184 151.896C42.4356 156.185 42.3394 157.331 42.3394 163.078C42.3394 168.87 42.42 170.017 43.1534 174.021C44.0298 178.816 45.8164 183.892 47.8085 187.273C48.4613 188.373 50.0555 190.665 50.2479 190.784C50.3103 190.814 50.1205 191.365 49.8162 192.006C47.5224 196.696 45.5616 202.933 44.7476 208.189C44.1728 211.793 44.0948 212.954 44.0948 216.75C44.0948 221.588 44.3809 223.941 45.4654 227.798L45.624 228.362H52.448H59.2876L58.8403 227.575C56.0837 222.81 55.8262 213.967 58.2032 205.138C59.2876 201.058 60.5151 198.066 62.8089 193.942L64.182 191.44V189.908C64.182 188.477 64.1482 188.314 63.6541 187.375C63.2718 186.661 62.7621 186.051 61.8545 185.215C60.3071 183.816 59.1914 182.342 58.2994 180.528C54.3777 172.576 53.6105 160.77 56.3698 150.706C57.5166 146.507 59.4151 142.771 61.4072 140.731C62.7621 139.33 63.4642 137.768 63.4642 136.146C63.4642 134.463 62.8271 133.078 61.3916 131.633C57.2774 127.524 54.7444 122.523 53.8341 116.701C52.5442 108.407 54.8874 99.37 60.2109 92.2101C65.4251 85.1814 72.7433 80.6713 80.9196 79.4642C82.753 79.1825 86.1807 79.2262 88.0947 79.5541C90.183 79.8965 91.4911 79.7921 92.8278 79.1971C94.487 78.4685 95.3166 77.5601 96.2893 75.4739C97.1501 73.6135 97.8184 72.6007 99.6207 70.5023C101.79 67.9861 103.878 66.2739 107.225 64.2046C111.05 61.8682 115.404 60.1705 119.739 59.352C121.318 59.0533 122.051 59.0096 125 59.0096C127.949 59.0096 128.683 59.0533 130.261 59.352C136.622 60.5567 142.934 63.6241 147.971 67.9715C149.056 68.909 151.656 71.9158 152.483 73.1666C152.803 73.6596 153.362 74.7015 153.711 75.4739C154.684 77.5601 155.513 78.4685 157.17 79.1971C158.462 79.7775 159.817 79.8965 161.827 79.5832C164.998 79.0781 167.437 79.1218 170.547 79.7193C181.132 81.7132 190.346 89.8567 194.429 100.771C197.984 110.343 196.977 120.364 191.685 128.017C190.793 129.311 189.901 130.353 188.609 131.633C185.818 134.419 185.818 137.872 188.593 140.731C193.152 145.389 196.005 156.855 195.144 166.964C194.572 173.633 192.738 179.603 190.218 182.983C189.774 183.578 188.848 184.591 188.146 185.215C187.238 186.051 186.728 186.661 186.346 187.375C185.852 188.314 185.818 188.477 185.818 189.908V191.44L187.189 193.942C189.485 198.066 190.713 201.058 191.797 205.138C194.14 213.848 193.935 222.511 191.256 227.441C191.032 227.856 190.84 228.243 190.84 228.289C190.84 228.332 193.885 228.362 197.617 228.362H204.376L204.55 227.723C204.647 227.38 204.805 226.858 204.886 226.562C205.06 225.906 205.411 223.97 205.7 222.11C205.97 220.235 205.97 213.325 205.7 211.242C204.678 203.679 202.972 197.677 200.184 192.006C199.88 191.365 199.69 190.814 199.752 190.784C199.833 190.741 200.278 190.146 200.756 189.475C204.233 184.562 206.368 178.383 207.453 170.223C207.739 167.976 207.739 158.313 207.453 156.156C206.688 150.587 205.762 146.805 204.233 142.978C203.593 141.387 201.906 138.021 201.188 136.935L200.837 136.384L202.049 134.701C205.762 129.489 207.931 123.803 208.776 117.073C209.159 114.156 209.031 108.259 208.553 105.34C207.31 97.9419 204.392 91.1536 199.864 85.1377C197.505 81.9974 194.078 78.5559 191.079 76.3239C190.203 75.6681 189.423 75.0731 189.358 75.0148C189.28 74.9541 189.373 74.1356 189.566 73.2127C191.495 63.8184 191.43 52.0999 189.407 42.9436C187.652 34.9653 184.463 28.6215 180.352 24.959C177.067 22.0421 173.72 20.7913 169.702 21.0293C160.488 21.5345 153.058 31.4364 150.125 47.0384C149.646 49.5546 149.233 52.503 149.233 53.307C149.233 53.6203 149.168 53.8728 149.09 53.8728C149.009 53.8728 148.387 53.5741 147.717 53.2025C140.606 49.2729 132.701 47.172 125 47.172C117.3 47.172 109.394 49.2729 102.284 53.2025C101.613 53.5741 100.991 53.8728 100.911 53.8728C100.833 53.8728 100.768 53.6203 100.768 53.307C100.768 52.4739 100.338 49.4356 99.8755 47.0384C97.2125 33.0296 91.1062 23.7543 82.9923 21.4155C81.8766 21.1022 78.7039 20.8957 77.5726 21.0584ZM80.2824 33.1777C82.5788 34.8754 85.13 39.728 86.5968 45.1635C86.8672 46.1447 87.1533 47.2764 87.2339 47.6942C87.2963 48.0949 87.4732 49.0033 87.6162 49.7027C88.2377 52.8601 88.5238 56.27 88.5576 60.4231L88.5732 64.5179L87.4732 66.0359L86.3731 67.5684H83.8063C80.8078 67.5684 77.8275 67.9278 74.9746 68.6419C73.9525 68.8799 72.9643 69.1179 72.7745 69.1616C72.4702 69.2223 72.4234 69.1325 72.2491 67.9108C71.3077 61.2877 71.3545 53.9457 72.3922 47.8423C73.539 41.0395 76.2177 34.8754 78.8313 33.0587C79.4529 32.6264 79.5647 32.641 80.2824 33.1777ZM171.184 33.0733C172.763 34.1589 174.5 37.0491 175.79 40.7408C178.391 48.1265 179.124 58.264 177.754 67.9108C177.577 69.1325 177.53 69.2223 177.226 69.1616C177.036 69.1179 176.048 68.8799 175.026 68.6419C172.173 67.9278 169.192 67.5684 166.194 67.5684H163.627L162.527 66.0359L161.427 64.5179L161.443 60.4231C161.476 54.6452 162.049 50.135 163.422 45.1173C164.87 39.728 167.437 34.8754 169.718 33.1777C170.436 32.641 170.547 32.6264 171.184 33.0733Z" fill="black"/>
<path d="M122.529 108.006C119.068 108.317 118.129 108.436 116.47 108.75C113.776 109.272 110.174 110.433 107.672 111.579C98.9676 115.555 92.9732 122.18 91.1397 129.848C90.773 131.366 90.7236 131.871 90.7236 134.433C90.7236 136.964 90.773 137.515 91.1241 138.958C93.5609 148.979 103.446 156.377 116.231 157.732C119.005 158.016 130.994 158.016 133.766 157.732C144.034 156.646 152.865 151.449 156.837 144.155C157.887 142.205 158.4 140.937 158.875 138.958C159.227 137.515 159.276 136.964 159.276 134.433C159.276 131.871 159.227 131.366 158.86 129.848C156.197 118.71 144.624 109.942 130.435 108.274C128.586 108.065 123.741 107.887 122.529 108.006ZM128.49 116.104C133.226 116.582 137.992 118.161 141.818 120.541C143.875 121.823 146.777 124.502 148.02 126.258C149.55 128.432 150.426 130.652 150.827 133.345C151.001 134.581 150.905 135.519 150.426 137.515C149.677 140.493 147.35 143.604 144.211 145.778C142.744 146.776 139.699 148.219 137.834 148.785C134.294 149.841 131.982 150.035 123.725 149.975C118.337 149.931 117.38 149.887 115.833 149.618C110.556 148.695 106.379 146.73 103.35 143.738C100.895 141.326 99.779 139.123 99.173 135.565C98.9026 133.911 99.4123 131.171 100.45 128.864C101.709 126.049 104.959 122.552 108.182 120.541C111.911 118.219 116.821 116.568 121.333 116.121C123.07 115.941 126.753 115.941 128.49 116.104Z" fill="black"/>
<path d="M118.91 126.975C117.7 127.584 116.855 129.131 117.11 130.278C117.396 131.514 118.561 132.765 120.376 133.792C121.349 134.343 121.414 134.419 121.461 134.968C121.492 135.295 121.365 136.233 121.19 137.068C120.998 137.887 120.855 138.749 120.855 138.99C120.87 139.628 121.51 140.67 122.179 141.178C122.769 141.625 122.881 141.639 124.537 141.683C126.053 141.727 126.371 141.698 126.977 141.43C128.54 140.716 128.938 139.405 128.365 136.889C127.887 134.79 127.981 134.462 129.177 133.821C130.436 133.136 131.775 131.932 132.175 131.113C132.94 129.549 132.238 127.779 130.547 126.958C130.134 126.766 129.624 126.676 128.875 126.676C127.71 126.676 126.961 126.928 125.591 127.747L124.808 128.208L124.316 127.927C122.29 126.809 121.924 126.676 120.696 126.69C119.82 126.69 119.341 126.766 118.91 126.975Z" fill="black"/>
<path d="M80.2016 109.689C77.3799 110.523 75.276 112.458 74.1915 115.212C73.6662 116.521 73.4113 118.591 73.635 119.708C74.1603 122.372 76.5035 124.801 79.1665 125.469C82.5135 126.29 85.0179 125.753 87.2336 123.698C88.5235 122.523 89.2257 121.495 89.9279 119.827C90.4376 118.651 90.4688 118.443 90.4688 116.776L90.4844 114.989L89.816 113.709C88.7472 111.683 86.8175 110.18 84.5862 109.629C83.3275 109.33 81.3016 109.347 80.2016 109.689Z" fill="black"/>
<path d="M165.349 109.643C163.164 110.195 161.222 111.713 160.184 113.709L159.516 114.989L159.531 116.776C159.531 118.443 159.562 118.651 160.072 119.827C160.774 121.495 161.476 122.523 162.766 123.698C164.982 125.753 167.487 126.29 170.834 125.469C172.763 124.993 174.693 123.475 175.616 121.702C176.414 120.199 176.604 119.113 176.349 117.401C175.759 113.486 173.304 110.642 169.653 109.643C168.587 109.347 166.514 109.347 165.349 109.643Z" fill="black"/>
</g>
<defs>
<clipPath id="clip0_31_77">
<rect width="168" height="207.412" fill="white" transform="translate(41 21)"/>
</clipPath>
</defs>
</svg>
