<svg width="250" height="250" viewBox="0 0 250 250" fill="none" xmlns="http://www.w3.org/2000/svg">
<path d="M98.4097 47.9978C99.2755 48.0017 100.141 48.0056 101.033 48.0097C107.095 48.0894 112.608 48.4656 118.436 50.2892C118.879 50.423 119.322 50.5567 119.778 50.6945C130.09 53.8697 139.274 58.8936 147.383 66.199C147.917 66.6413 148.452 67.0836 149.002 67.5393C163.108 79.6485 171.582 98.4174 173.471 117.001C174.892 138.118 169.293 158.494 155.889 174.798C155.304 175.484 154.718 176.17 154.114 176.876C153.392 177.723 153.392 177.723 152.655 178.587C139.06 193.447 120.428 200.53 100.974 201.976C79.4405 202.525 60.3929 193.665 44.8324 178.757C29.3141 162.459 23.7868 142.036 24.0063 119.7C24.1593 113.567 25.0703 107.998 26.8856 102.169C27.0263 101.7 27.167 101.232 27.3119 100.749C33.1708 81.6906 46.7086 65.7411 63.7731 56.3674C74.7794 50.5494 86.047 47.9397 98.4097 47.9978ZM66.6025 93.1766C66.1825 93.585 65.7625 93.9934 65.3298 94.4142C57.2183 102.937 54.1399 114.885 54.2012 126.441C54.3453 131.871 55.2078 136.52 57.1782 141.598C57.448 142.297 57.7179 142.996 57.996 143.716C62.7033 154.484 70.9154 162.225 81.286 167.106C93.5877 171.896 105.818 171.503 117.971 166.225C129.431 160.428 136.696 150.916 141.324 138.831C144.984 127.737 143.567 115.298 138.934 104.76C137.31 101.599 135.377 98.763 133.246 95.9435C132.936 95.5111 132.627 95.0786 132.307 94.633C126.122 86.5182 115.516 80.704 105.646 79.342C90.4994 78.0882 77.5143 81.8446 66.6025 93.1766Z" fill="black"/>
<path d="M195.851 48.214C205.848 48.214 215.844 48.214 226.144 48.214C226.144 98.8903 226.144 149.567 226.144 201.779C216.147 201.779 206.151 201.779 195.851 201.779C195.851 151.102 195.851 100.426 195.851 48.214Z" fill="black"/>
</svg>
