<svg width="250" height="250" viewBox="0 0 250 250" fill="none" xmlns="http://www.w3.org/2000/svg">
<path d="M125.001 32C74.1923 32 33 73.669 33 125.073C33 176.476 74.1923 218.148 125.001 218.148C175.809 218.148 217 176.476 217 125.073C217 73.669 175.808 32 125.001 32ZM125.001 206.197C110.545 206.197 98.8246 196.428 98.8246 184.38H151.177C151.177 196.426 139.457 206.197 125.001 206.197ZM168.236 177.154H81.7612V161.291H168.237L168.236 177.154ZM167.925 153.126H82.008C81.7223 152.792 81.43 152.464 81.154 152.126C72.3025 141.252 70.2179 135.576 68.1934 129.791C68.1593 129.6 78.9265 132.016 86.562 133.754C86.562 133.754 90.491 134.674 96.235 135.733C90.7199 129.193 87.4452 120.878 87.4452 112.38C87.4452 93.7225 101.589 77.4189 96.4867 64.241C101.453 64.65 106.765 74.8451 107.124 90.7857C112.404 83.4042 114.613 69.9241 114.613 61.659C114.613 53.1014 120.187 43.1609 125.762 42.8209C120.793 51.1074 127.05 58.2113 132.612 75.8339C134.698 82.4532 134.432 93.5928 136.042 100.657C136.577 85.9846 139.07 64.5761 148.271 57.1847C144.212 66.4929 148.872 78.14 152.059 83.7393C157.2 92.7732 160.318 99.6175 160.318 112.562C160.318 121.241 157.15 129.413 151.807 135.801C157.882 134.648 162.077 133.608 162.077 133.608L181.807 129.713C181.808 129.712 178.941 141.64 167.925 153.126Z" fill="#E6522C"/>
</svg>
