<svg width="250" height="250" viewBox="0 0 250 250" fill="none" xmlns="http://www.w3.org/2000/svg">
<path d="M174.26 200.06L170.3 101.342L163.127 75.316L211 79.8981V199.313L181.757 214.573L174.26 200.06Z" fill="#24386C"/>
<path d="M210.998 79.8912L181.754 95.1612L121.406 83.1926L50.7686 109.195L39 79.8912L81.9925 57.4456L124.998 35L167.992 57.4456L210.998 79.8912Z" fill="#7589BE"/>
<path d="M39.0024 79.8911L68.2462 95.1612L85.1982 140.743L142.436 182.149L125.002 214.565L81.9962 192.118L39.0024 169.672V79.89" fill="#B2BFE8"/>
<path d="M144.389 158.197L125.001 184.039V214.567L152.512 200.216L166.687 181.079" fill="#24386C"/>
<path d="M125.013 153.52L97.4907 110.437L103.419 96.1581L125.955 86.2792L152.512 110.438L125.013 153.52Z" fill="#7589BE"/>
<path d="M97.4914 110.434L125.002 124.785V153.51L99.5582 154.5L84.1675 136.732L97.4914 110.434" fill="#B2BFE8"/>
<path d="M125.001 124.782L152.512 110.432L171.235 138.618L148.578 155.544L125.001 153.509V124.782Z" fill="#24386C"/>
<path d="M152.512 200.214L181.756 214.566V95.1624L153.372 80.3519L125.001 65.5413L96.6177 80.3519L68.2471 95.1624V154.415L96.6177 169.226L125.001 184.037L152.512 169.673V200.214ZM152.512 139.145L125.001 153.508L97.4908 139.145V110.431L125.001 96.0685L152.512 110.431V139.145Z" fill="#DC244C"/>
<path d="M125.013 184.048V153.515L97.646 139.275V169.757L125.013 184.048Z" fill="url(#paint0_linear_31_16)"/>
<defs>
<linearGradient id="paint0_linear_31_16" x1="2329.76" y1="2147.01" x2="-397.308" y2="2147.01" gradientUnits="userSpaceOnUse">
<stop stop-color="#FF3364"/>
<stop offset="1" stop-color="#C91540" stop-opacity="0"/>
</linearGradient>
</defs>
</svg>
