<svg width="250" height="250" viewBox="0 0 250 250" fill="none" xmlns="http://www.w3.org/2000/svg">
<path d="M154.378 65.918C156.003 65.918 157.378 70.2926 157.378 75.5421V78.0419C157.628 77.9169 157.878 77.9169 158.253 77.9169H211.498C216.748 77.9169 221.122 82.2915 221.122 87.666V137.661C221.122 142.911 216.748 147.286 211.498 147.286H185.626C180.376 147.286 176.001 142.911 176.001 137.661V118.038C173.627 119.788 172.127 122.538 172.127 125.663V142.036C172.127 147.286 176.501 151.66 181.751 151.66H198.624V177.533C198.624 180.783 196 183.407 192.75 183.407H161.003C157.753 183.407 155.128 180.783 155.128 177.533V153.785C155.128 150.535 152.504 147.911 149.254 147.911H70.136C66.8863 147.911 64.2615 150.535 64.2615 153.785V177.533C64.2615 180.783 61.6367 183.407 58.387 183.407H26.6399C23.3902 183.407 20.7654 180.783 20.7654 177.533V109.039L6.51672 120.288C5.89177 120.788 5.01685 120.663 4.5169 120.038L0.392269 115.164C-0.107685 114.664 -0.107685 113.914 0.267281 113.414L21.2654 81.2916C22.2653 79.1668 24.2651 77.7919 26.6399 77.7919H138.13C141.755 77.7919 144.504 81.0416 143.879 84.6663L141.63 98.2901C141.005 101.915 143.754 105.164 147.379 105.164H169.877C172.752 105.164 175.127 103.165 175.626 100.415C174.377 100.915 172.752 101.165 171.127 101.165H155.128C149.879 101.165 146.254 96.9152 147.129 91.6656L149.879 75.4171C150.754 70.1676 152.754 65.918 154.378 65.918ZM242.62 65.918C244.245 65.918 246.245 70.1676 247.12 75.4171L249.87 91.6656C250.745 96.9152 247.12 101.165 241.745 101.165H224.872V89.4158H229.997C235.246 89.4158 239.621 85.0412 239.621 79.7917V75.5421C239.621 70.2926 240.996 65.918 242.62 65.918Z" fill="#0075A8"/>
</svg>
