<svg width="250" height="250" viewBox="0 0 250 250" fill="none" xmlns="http://www.w3.org/2000/svg">
<path d="M71.023 170.225C77.3381 170.225 82.4575 165.106 82.4575 158.791C82.4575 152.476 77.3381 147.356 71.023 147.356C64.7078 147.356 59.5884 152.476 59.5884 158.791C59.5884 165.106 64.7078 170.225 71.023 170.225Z" fill="#2E68E9"/>
<path d="M130.728 129.857C130.387 129.857 130.047 129.84 129.71 129.809C132.656 136.179 134.544 143.134 135.111 150.457H159.558C163.043 144.31 168.736 139.577 175.555 137.342V129.855H130.775C130.76 129.855 130.744 129.857 130.728 129.857Z" fill="#2E68E9"/>
<path d="M82.7827 79.3203V95.0778C96.2499 96.895 108.326 103.144 117.493 112.31L109.509 79.3203H82.7827Z" fill="#2E68E9"/>
<path d="M184.438 170.225C187.595 170.225 190.155 167.666 190.155 164.508C190.155 161.35 187.595 158.791 184.438 158.791C181.28 158.791 178.72 161.35 178.72 164.508C178.72 167.666 181.28 170.225 184.438 170.225Z" fill="#2E68E9"/>
<path d="M212.614 34H37.5101C24.5795 34 14 44.5796 14 57.5103V192.401C14 205.332 24.5795 215.912 37.5101 215.912H212.614C225.544 215.912 236.124 205.332 236.124 192.401V57.5103C236.124 44.5796 225.544 34 212.614 34ZM71.0227 193.095C52.1076 193.095 36.719 177.706 36.719 158.791C36.719 139.876 52.1076 124.487 71.0227 124.487C89.9378 124.487 105.326 139.876 105.326 158.791C105.326 177.706 89.9378 193.095 71.0227 193.095ZM184.438 193.095C171.752 193.095 160.975 184.786 157.249 173.326H123.867C117.556 173.326 112.44 168.215 112.432 161.905L112.424 155.194C112.424 134.343 95.4711 117.389 74.6331 117.389H55.832C49.5173 117.389 44.3974 112.27 44.3974 105.955C44.3974 99.6395 49.5173 94.5202 55.832 94.5202H59.9134V79.3203H55.832C49.5173 79.3203 44.3974 74.201 44.3974 67.8857C44.3974 61.5704 49.5173 56.4511 55.832 56.4511H118.506C123.784 56.4511 128.377 60.0646 129.62 65.1957L139.735 106.985H182.884C191.453 106.985 198.425 113.957 198.425 122.526V139.591C207.129 144.497 213.024 153.824 213.024 164.508C213.024 180.271 200.201 193.095 184.438 193.095Z" fill="#2E68E9"/>
</svg>
