<svg width="250" height="250" viewBox="0 0 250 250" fill="none" xmlns="http://www.w3.org/2000/svg">
<path fill-rule="evenodd" clip-rule="evenodd" d="M176.06 162.687L175.181 160.82L155.98 124.419C155.331 123.201 155.412 122.476 156.27 121.441L186.646 85.7656C187 85.348 187.322 84.9013 187.458 84.1588L178.589 86.4791L141.754 96.268C140.611 96.5755 140.092 96.239 139.52 95.2935L118.603 60.4422C118.24 59.8389 117.849 59.282 117.08 58.7454L115.392 68.047L109.553 100.909L108.95 104.459C108.852 105.619 108.271 106.008 107.25 106.33L63.8865 120.034C63.2484 120.237 62.6335 120.492 61.9519 121.113L97.6269 135.279L96.5828 136.099L74.386 150.448C74.0243 150.73 73.588 150.9 73.1309 150.937C72.6737 150.974 72.2157 150.877 71.8133 150.656L45.2862 138.834C41.3184 137.094 37.7451 134.707 34.9665 131.308C28.6813 123.622 29.9198 114.871 38.2962 109.555C41.0371 107.806 44.1492 106.495 47.2526 105.483L89.848 91.9522C91.0082 91.581 91.5883 91.0473 91.8116 89.7566L97.6124 56.895C98.6682 51.0419 99.2309 45.0033 102.079 39.6723C103.173 37.642 104.486 35.5886 106.044 33.8599C111.685 27.595 119.56 27.3572 125.523 33.3204C127.536 35.3333 129.294 37.7088 130.764 40.1451L150.203 72.4441C150.963 73.7202 151.653 73.9813 153.057 73.6042L200.67 60.9555C203.941 60.0912 207.254 59.7751 210.609 60.3755C217.918 61.7444 221.118 67.3364 218.644 74.3728C217.518 77.5633 215.575 80.31 213.423 82.8768L180.193 121.937C179.285 122.998 179.265 123.764 179.894 124.953L199.681 162.467C201.259 165.46 202.465 168.566 202.494 172.003C202.572 179.823 196.856 186.221 189.086 187.358C184.735 187.996 180.692 187.068 176.614 185.809L146.74 176.722C145.817 176.447 145.463 176.084 145.301 175.09L141.699 154.091C141.664 153.899 141.722 153.69 141.751 153.261L176.034 162.716" fill="#E25A1C"/>
<path d="M97.5968 135.278L103.92 138.034L96.892 194.012L135.305 151.434L141.782 153.252L149.758 177.5L139.392 173.845L112.569 202.803C112.569 202.803 100.573 215.222 94.0699 213.128C87.5672 211.034 82.0796 205.239 81.4705 194.879C80.8614 184.519 78.1177 154.94 78.1177 154.94L65.0078 145.491L97.5968 135.278Z" fill="#E25A1C"/>
<path d="M78.1152 154.943C78.1152 154.943 72.3259 218.964 83.6027 221.096C94.8795 223.228 82.3846 220.791 82.3846 220.791C82.3846 220.791 88.7858 228.109 114.086 200.976L139.389 173.845L88.7829 203.719C90.001 202.194 95.1841 150.369 95.1841 150.369L78.1152 154.943Z" fill="#E25A1C"/>
</svg>
