<svg width="250" height="250" viewBox="0 0 250 250" fill="none" xmlns="http://www.w3.org/2000/svg">
<path d="M176.039 67.1055C158.033 67.1055 141.447 78.2698 125.417 97.7767C109.666 77.9631 92.8015 67.1055 73.961 67.1055C42.7644 67.1055 20 91.6425 20 124.675C20 157.708 42.7644 181.939 73.961 181.939C93.1354 181.939 107.996 172.032 124.583 152.28C140.612 172.093 156.92 182 176.039 182C207.236 181.939 230 157.8 230 124.675C230 91.5505 207.236 67.1055 176.039 67.1055ZM74.1837 147.28C60.9647 147.28 53.0891 137.68 53.0891 124.982C53.0891 112.284 60.9647 102.408 74.1837 102.408C85.3154 102.408 94.4156 112.284 104.267 125.596C94.9722 137.987 85.1484 147.28 74.1837 147.28ZM175.093 147.28C164.128 147.28 154.861 137.68 145.009 124.982C155.139 111.671 163.85 102.408 175.093 102.408C188.312 102.408 196.104 112.407 196.104 124.982C196.104 137.557 188.312 147.28 175.093 147.28Z" fill="#484848"/>
<path d="M148.07 173.749L169.054 146.145C160.705 143.385 152.996 135.104 145.009 124.829L124.583 152.28C131.27 160.831 139.21 168.087 148.07 173.749Z" fill="#20A7C9"/>
<path d="M125.418 97.7461C118.775 89.0722 110.885 81.6529 102.069 75.7855L81.0576 103.696C89.0446 106.763 96.1133 114.677 103.627 124.767L104.462 125.412L125.418 97.7461Z" fill="#20A7C9"/>
</svg>
